<svg width="20" height="20" viewBox="0 0 20 20" fill="none" xmlns="http://www.w3.org/2000/svg">
<path fill-rule="evenodd" clip-rule="evenodd" d="M11.5924 11.4139C10.1604 12.8458 7.83883 12.8458 6.40691 11.4139C4.97499 9.98193 4.97499 7.66033 6.40691 6.2284C7.83883 4.79648 10.1604 4.79648 11.5924 6.2284C13.0243 7.66033 13.0243 9.98193 11.5924 11.4139ZM12.0327 12.7968C10.0725 14.2962 7.25693 14.1495 5.4641 12.3567C3.51148 10.404 3.51148 7.23822 5.4641 5.28559C7.41672 3.33297 10.5825 3.33297 12.5352 5.28559C14.3279 7.07834 14.4747 9.89376 12.9755 11.854L16.5422 15.4207L15.5994 16.3635L12.0327 12.7968Z" fill="#999999"/>
</svg>
